<?xml version="1.0" encoding="utf-8"?>
<!-- Generator: Adobe Illustrator 29.7.1, SVG Export Plug-In . SVG Version: 9.03 Build 0)  -->
<svg version="1.0" id="Ñëîé_1" xmlns="http://www.w3.org/2000/svg" xmlns:xlink="http://www.w3.org/1999/xlink" x="0px" y="0px"
	 viewBox="0 0 55 31" style="enable-background:new 0 0 55 31;" xml:space="preserve">
<style type="text/css">
	.st0{clip-path:url(#SVGID_00000104686624246281735150000015794984647695169152_);}
	.st1{clip-path:url(#SVGID_00000104686624246281735150000015794984647695169152_);fill:#E1001F;}
	.st2{clip-path:url(#SVGID_00000104686624246281735150000015794984647695169152_);fill:#F6D928;}
	.st3{clip-path:url(#SVGID_00000074412840200838235730000010118637822193061559_);fill:#FFFFFF;}
	.st4{clip-path:url(#SVGID_00000074412840200838235730000010118637822193061559_);fill:#BD0034;}
	.st5{clip-path:url(#SVGID_00000074412840200838235730000010118637822193061559_);fill:#1A237B;}
	.st6{clip-path:url(#SVGID_00000020386118730611122530000011566251154773164680_);fill:#2D5A95;}
	.st7{clip-path:url(#SVGID_00000020386118730611122530000011566251154773164680_);fill:#F3D02F;}
	.st8{fill:#FFFFFF;}
	.st9{clip-path:url(#SVGID_00000063618104535318687780000009703928479028091782_);fill:#D03033;}
	.st10{clip-path:url(#SVGID_00000063618104535318687780000009703928479028091782_);fill:#FFFFFF;}
	.st11{clip-path:url(#SVGID_00000063618104535318687780000009703928479028091782_);fill:#1F189B;}
	.st12{clip-path:url(#SVGID_00000063618104535318687780000009703928479028091782_);}
	.st13{clip-path:url(#SVGID_00000063618104535318687780000009703928479028091782_);fill:#F2B126;}
	.st14{clip-path:url(#SVGID_00000063618104535318687780000009703928479028091782_);fill:#32784C;}
	.st15{clip-path:url(#SVGID_00000165193986158461945790000002901795865225650107_);fill:#180087;}
	.st16{clip-path:url(#SVGID_00000165193986158461945790000002901795865225650107_);fill:#FFFFFF;}
	.st17{clip-path:url(#SVGID_00000165193986158461945790000002901795865225650107_);fill:#EA0020;}
	.st18{clip-path:url(#SVGID_00000129195924535582730920000006990924566257285524_);fill:#CB001C;}
	.st19{clip-path:url(#SVGID_00000129195924535582730920000006990924566257285524_);fill:#FFFFFF;}
	.st20{clip-path:url(#SVGID_00000129195924535582730920000006990924566257285524_);fill:#2A3560;}
	.st21{clip-path:url(#SVGID_00000122704818622702026560000000404410023086150076_);fill:#323E95;}
	.st22{clip-path:url(#SVGID_00000122704818622702026560000000404410023086150076_);fill:#F4F4F4;}
	.st23{clip-path:url(#SVGID_00000122704818622702026560000000404410023086150076_);fill:#D80031;}
	.st24{clip-path:url(#SVGID_00000034770046708037702580000006808969138618455171_);fill:#FFFFFF;}
	.st25{clip-path:url(#SVGID_00000034770046708037702580000006808969138618455171_);fill:#F0953E;}
	.st26{clip-path:url(#SVGID_00000034770046708037702580000006808969138618455171_);fill:#3B8916;}
	.st27{clip-path:url(#SVGID_00000034770046708037702580000006808969138618455171_);}
	.st28{clip-path:url(#SVGID_00000015353730401081115380000004159318321691836051_);fill:#16007E;}
	.st29{clip-path:url(#SVGID_00000015353730401081115380000004159318321691836051_);fill:#FFFFFF;}
	.st30{clip-path:url(#SVGID_00000031929717438514287450000015507463172155531435_);fill:#EA0020;}
	.st31{clip-path:url(#SVGID_00000031929717438514287450000015507463172155531435_);fill:#FFFFFF;}
	.st32{clip-path:url(#SVGID_00000031929717438514287450000015507463172155531435_);}
	.st33{clip-path:url(#SVGID_00000057134095921989975260000018342689655025835663_);fill:#EA0020;}
	.st34{clip-path:url(#SVGID_00000006668996389135724250000006029559728962751901_);fill:#FFFFFF;}
	.st35{clip-path:url(#SVGID_00000006668996389135724250000006029559728962751901_);}
	.st36{clip-path:url(#SVGID_00000103968843705766749650000013113128417096071593_);fill:#B50037;}
	.st37{clip-path:url(#SVGID_00000103968843705766749650000013113128417096071593_);fill:#1E3476;}
	.st38{clip-path:url(#SVGID_00000173853900138959382030000011369974098836769169_);fill:#C6001E;}
	.st39{clip-path:url(#SVGID_00000173853900138959382030000011369974098836769169_);fill:#FFFFFF;}
	.st40{clip-path:url(#SVGID_00000157293575391193480010000000845638514158481315_);fill:#1A237B;}
	.st41{clip-path:url(#SVGID_00000157293575391193480010000000845638514158481315_);fill:#FFFFFF;}
	.st42{clip-path:url(#SVGID_00000157293575391193480010000000845638514158481315_);fill:#BD0034;}
	.st43{clip-path:url(#SVGID_00000176744411877338409430000010201559598551087275_);fill:#CB1D23;}
	.st44{clip-path:url(#SVGID_00000176744411877338409430000010201559598551087275_);fill:#F7DE29;}
	.st45{clip-path:url(#SVGID_00000069389973745977509840000009413199957371686028_);fill:#D80031;}
	.st46{clip-path:url(#SVGID_00000069389973745977509840000009413199957371686028_);fill:#FFFFFF;}
	.st47{clip-path:url(#SVGID_00000069389973745977509840000009413199957371686028_);fill:#2530A9;}
	.st48{clip-path:url(#SVGID_00000069389973745977509840000009413199957371686028_);}
	.st49{clip-path:url(#SVGID_00000179634913558305154640000011794609262331593648_);fill:#F5D028;}
	.st50{clip-path:url(#SVGID_00000085970977769211564720000007528387946643058108_);fill:#FFFFFF;}
	.st51{clip-path:url(#SVGID_00000085970977769211564720000007528387946643058108_);}
	.st52{clip-path:url(#SVGID_00000157992856169976130440000011188740525875579533_);fill:#AD0018;}
	.st53{clip-path:url(#SVGID_00000049205141879097975250000007735836288209739952_);fill:#314588;}
	.st54{clip-path:url(#SVGID_00000049205141879097975250000007735836288209739952_);fill:#FFFFFF;}
	.st55{clip-path:url(#SVGID_00000049205141879097975250000007735836288209739952_);fill:#9F1330;}
</style>
<g>
	<g>
		<defs>
			<rect id="SVGID_00000098202001710331561750000005082261897036274560_" width="55" height="31"/>
		</defs>
		<clipPath id="SVGID_00000183949064621991686000000013067862564228768917_">
			<use xlink:href="#SVGID_00000098202001710331561750000005082261897036274560_"  style="overflow:visible;"/>
		</clipPath>
		
			<rect y="28.6" style="clip-path:url(#SVGID_00000183949064621991686000000013067862564228768917_);fill:#CB001C;" width="55" height="2.4"/>
		
			<rect y="26.2" style="clip-path:url(#SVGID_00000183949064621991686000000013067862564228768917_);fill:#FFFFFF;" width="55" height="2.4"/>
		
			<rect y="23.8" style="clip-path:url(#SVGID_00000183949064621991686000000013067862564228768917_);fill:#CB001C;" width="55" height="2.4"/>
		
			<rect y="21.5" style="clip-path:url(#SVGID_00000183949064621991686000000013067862564228768917_);fill:#FFFFFF;" width="55" height="2.4"/>
		
			<rect y="19.1" style="clip-path:url(#SVGID_00000183949064621991686000000013067862564228768917_);fill:#CB001C;" width="55" height="2.4"/>
		
			<rect y="16.7" style="clip-path:url(#SVGID_00000183949064621991686000000013067862564228768917_);fill:#FFFFFF;" width="55" height="2.4"/>
		
			<rect y="14.3" style="clip-path:url(#SVGID_00000183949064621991686000000013067862564228768917_);fill:#CB001C;" width="55" height="2.4"/>
		
			<rect y="11.9" style="clip-path:url(#SVGID_00000183949064621991686000000013067862564228768917_);fill:#FFFFFF;" width="55" height="2.4"/>
		
			<rect y="9.5" style="clip-path:url(#SVGID_00000183949064621991686000000013067862564228768917_);fill:#CB001C;" width="55" height="2.4"/>
		
			<rect y="7.2" style="clip-path:url(#SVGID_00000183949064621991686000000013067862564228768917_);fill:#FFFFFF;" width="55" height="2.4"/>
		
			<rect y="4.8" style="clip-path:url(#SVGID_00000183949064621991686000000013067862564228768917_);fill:#CB001C;" width="55" height="2.4"/>
		
			<rect y="2.4" style="clip-path:url(#SVGID_00000183949064621991686000000013067862564228768917_);fill:#FFFFFF;" width="55" height="2.4"/>
		
			<rect style="clip-path:url(#SVGID_00000183949064621991686000000013067862564228768917_);fill:#CB001C;" width="55" height="2.4"/>
		
			<rect style="clip-path:url(#SVGID_00000183949064621991686000000013067862564228768917_);fill:#2A3560;" width="25.1" height="16.7"/>
		<polygon style="clip-path:url(#SVGID_00000183949064621991686000000013067862564228768917_);fill:#FFFFFF;" points="2.3,1.8 
			2.5,2.5 3.2,2.5 2.6,2.9 2.8,3.5 2.3,3.1 1.7,3.5 1.9,2.9 1.4,2.5 2.1,2.5 		"/>
		<polygon style="clip-path:url(#SVGID_00000183949064621991686000000013067862564228768917_);fill:#FFFFFF;" points="2.3,4.6 
			2.5,5.3 3.2,5.3 2.6,5.6 2.8,6.3 2.3,5.9 1.7,6.3 1.9,5.6 1.4,5.3 2.1,5.3 		"/>
		<polygon style="clip-path:url(#SVGID_00000183949064621991686000000013067862564228768917_);fill:#FFFFFF;" points="2.3,7.4 
			2.5,8 3.2,8 2.6,8.4 2.8,9.1 2.3,8.7 1.7,9.1 1.9,8.4 1.4,8 2.1,8 		"/>
		<polygon style="clip-path:url(#SVGID_00000183949064621991686000000013067862564228768917_);fill:#FFFFFF;" points="2.3,10.2 
			2.5,10.8 3.2,10.8 2.6,11.2 2.8,11.8 2.3,11.5 1.7,11.8 1.9,11.2 1.4,10.8 2.1,10.8 		"/>
		<polygon style="clip-path:url(#SVGID_00000183949064621991686000000013067862564228768917_);fill:#FFFFFF;" points="2.3,13 
			2.5,13.6 3.2,13.6 2.6,14 2.8,14.6 2.3,14.2 1.7,14.6 1.9,14 1.4,13.6 2.1,13.6 		"/>
		<polygon style="clip-path:url(#SVGID_00000183949064621991686000000013067862564228768917_);fill:#FFFFFF;" points="4.3,3.3 
			4.5,3.9 5.2,3.9 4.6,4.3 4.8,5 4.3,4.6 3.7,5 3.9,4.3 3.4,3.9 4.1,3.9 		"/>
		<polygon style="clip-path:url(#SVGID_00000183949064621991686000000013067862564228768917_);fill:#FFFFFF;" points="4.3,6.1 
			4.5,6.7 5.2,6.7 4.6,7.1 4.8,7.7 4.3,7.4 3.7,7.7 3.9,7.1 3.4,6.7 4.1,6.7 		"/>
		<polygon style="clip-path:url(#SVGID_00000183949064621991686000000013067862564228768917_);fill:#FFFFFF;" points="4.3,8.9 
			4.5,9.5 5.2,9.5 4.6,9.9 4.8,10.5 4.3,10.1 3.7,10.5 3.9,9.9 3.4,9.5 4.1,9.5 		"/>
		<polygon style="clip-path:url(#SVGID_00000183949064621991686000000013067862564228768917_);fill:#FFFFFF;" points="4.3,11.7 
			4.5,12.3 5.2,12.3 4.6,12.7 4.8,13.3 4.3,12.9 3.7,13.3 3.9,12.7 3.4,12.3 4.1,12.3 		"/>
		<polygon style="clip-path:url(#SVGID_00000183949064621991686000000013067862564228768917_);fill:#FFFFFF;" points="6.3,1.8 
			6.5,2.5 7.2,2.5 6.7,2.9 6.9,3.5 6.3,3.1 5.8,3.5 6,2.9 5.4,2.5 6.1,2.5 		"/>
		<polygon style="clip-path:url(#SVGID_00000183949064621991686000000013067862564228768917_);fill:#FFFFFF;" points="6.3,4.6 
			6.5,5.3 7.2,5.3 6.7,5.6 6.9,6.3 6.3,5.9 5.8,6.3 6,5.6 5.4,5.3 6.1,5.3 		"/>
		<polygon style="clip-path:url(#SVGID_00000183949064621991686000000013067862564228768917_);fill:#FFFFFF;" points="6.3,7.4 
			6.5,8 7.2,8 6.7,8.4 6.9,9.1 6.3,8.7 5.8,9.1 6,8.4 5.4,8 6.1,8 		"/>
		<polygon style="clip-path:url(#SVGID_00000183949064621991686000000013067862564228768917_);fill:#FFFFFF;" points="6.3,10.2 
			6.5,10.8 7.2,10.8 6.7,11.2 6.9,11.8 6.3,11.5 5.8,11.8 6,11.2 5.4,10.8 6.1,10.8 		"/>
		<polygon style="clip-path:url(#SVGID_00000183949064621991686000000013067862564228768917_);fill:#FFFFFF;" points="6.3,13 
			6.5,13.6 7.2,13.6 6.7,14 6.9,14.6 6.3,14.2 5.8,14.6 6,14 5.4,13.6 6.1,13.6 		"/>
		<polygon style="clip-path:url(#SVGID_00000183949064621991686000000013067862564228768917_);fill:#FFFFFF;" points="8.3,3.3 
			8.5,3.9 9.2,3.9 8.7,4.3 8.9,5 8.3,4.6 7.8,5 8,4.3 7.4,3.9 8.1,3.9 		"/>
		<polygon style="clip-path:url(#SVGID_00000183949064621991686000000013067862564228768917_);fill:#FFFFFF;" points="8.3,6.1 
			8.5,6.7 9.2,6.7 8.7,7.1 8.9,7.7 8.3,7.4 7.8,7.7 8,7.1 7.4,6.7 8.1,6.7 		"/>
		<polygon style="clip-path:url(#SVGID_00000183949064621991686000000013067862564228768917_);fill:#FFFFFF;" points="8.3,8.9 
			8.5,9.5 9.2,9.5 8.7,9.9 8.9,10.5 8.3,10.1 7.8,10.5 8,9.9 7.4,9.5 8.1,9.5 		"/>
		<polygon style="clip-path:url(#SVGID_00000183949064621991686000000013067862564228768917_);fill:#FFFFFF;" points="8.3,11.7 
			8.5,12.3 9.2,12.3 8.7,12.7 8.9,13.3 8.3,12.9 7.8,13.3 8,12.7 7.4,12.3 8.1,12.3 		"/>
		<polygon style="clip-path:url(#SVGID_00000183949064621991686000000013067862564228768917_);fill:#FFFFFF;" points="10.3,1.8 
			10.6,2.5 11.2,2.5 10.7,2.9 10.9,3.5 10.3,3.1 9.8,3.5 10,2.9 9.5,2.5 10.1,2.5 		"/>
		<polygon style="clip-path:url(#SVGID_00000183949064621991686000000013067862564228768917_);fill:#FFFFFF;" points="10.3,4.6 
			10.6,5.3 11.2,5.3 10.7,5.6 10.9,6.3 10.3,5.9 9.8,6.3 10,5.6 9.5,5.3 10.1,5.3 		"/>
		<polygon style="clip-path:url(#SVGID_00000183949064621991686000000013067862564228768917_);fill:#FFFFFF;" points="10.3,7.4 
			10.6,8 11.2,8 10.7,8.4 10.9,9.1 10.3,8.7 9.8,9.1 10,8.4 9.5,8 10.1,8 		"/>
		<polygon style="clip-path:url(#SVGID_00000183949064621991686000000013067862564228768917_);fill:#FFFFFF;" points="10.3,10.2 
			10.6,10.8 11.2,10.8 10.7,11.2 10.9,11.8 10.3,11.5 9.8,11.8 10,11.2 9.5,10.8 10.1,10.8 		"/>
		<polygon style="clip-path:url(#SVGID_00000183949064621991686000000013067862564228768917_);fill:#FFFFFF;" points="10.3,13 
			10.6,13.6 11.2,13.6 10.7,14 10.9,14.6 10.3,14.2 9.8,14.6 10,14 9.5,13.6 10.1,13.6 		"/>
		<polygon style="clip-path:url(#SVGID_00000183949064621991686000000013067862564228768917_);fill:#FFFFFF;" points="12.4,3.3 
			12.6,3.9 13.3,3.9 12.7,4.3 12.9,5 12.4,4.6 11.8,5 12,4.3 11.5,3.9 12.1,3.9 		"/>
		<polygon style="clip-path:url(#SVGID_00000183949064621991686000000013067862564228768917_);fill:#FFFFFF;" points="12.4,6.1 
			12.6,6.7 13.3,6.7 12.7,7.1 12.9,7.7 12.4,7.4 11.8,7.7 12,7.1 11.5,6.7 12.1,6.7 		"/>
		<polygon style="clip-path:url(#SVGID_00000183949064621991686000000013067862564228768917_);fill:#FFFFFF;" points="12.4,8.9 
			12.6,9.5 13.3,9.5 12.7,9.9 12.9,10.5 12.4,10.1 11.8,10.5 12,9.9 11.5,9.5 12.1,9.5 		"/>
		<polygon style="clip-path:url(#SVGID_00000183949064621991686000000013067862564228768917_);fill:#FFFFFF;" points="12.4,11.7 
			12.6,12.3 13.3,12.3 12.7,12.7 12.9,13.3 12.4,12.9 11.8,13.3 12,12.7 11.5,12.3 12.1,12.3 		"/>
		<polygon style="clip-path:url(#SVGID_00000183949064621991686000000013067862564228768917_);fill:#FFFFFF;" points="14.4,1.8 
			14.6,2.5 15.3,2.5 14.7,2.9 14.9,3.5 14.4,3.1 13.8,3.5 14,2.9 13.5,2.5 14.2,2.5 		"/>
		<polygon style="clip-path:url(#SVGID_00000183949064621991686000000013067862564228768917_);fill:#FFFFFF;" points="14.4,4.6 
			14.6,5.3 15.3,5.3 14.7,5.6 14.9,6.3 14.4,5.9 13.8,6.3 14,5.6 13.5,5.3 14.2,5.3 		"/>
		<polygon style="clip-path:url(#SVGID_00000183949064621991686000000013067862564228768917_);fill:#FFFFFF;" points="14.4,7.4 
			14.6,8 15.3,8 14.7,8.4 14.9,9.1 14.4,8.7 13.8,9.1 14,8.4 13.5,8 14.2,8 		"/>
		<polygon style="clip-path:url(#SVGID_00000183949064621991686000000013067862564228768917_);fill:#FFFFFF;" points="14.4,10.2 
			14.6,10.8 15.3,10.8 14.7,11.2 14.9,11.8 14.4,11.5 13.8,11.8 14,11.2 13.5,10.8 14.2,10.8 		"/>
		<polygon style="clip-path:url(#SVGID_00000183949064621991686000000013067862564228768917_);fill:#FFFFFF;" points="14.4,13 
			14.6,13.6 15.3,13.6 14.7,14 14.9,14.6 14.4,14.2 13.8,14.6 14,14 13.5,13.6 14.2,13.6 		"/>
		<polygon style="clip-path:url(#SVGID_00000183949064621991686000000013067862564228768917_);fill:#FFFFFF;" points="16.4,3.3 
			16.6,3.9 17.3,3.9 16.7,4.3 17,5 16.4,4.6 15.8,5 16.1,4.3 15.5,3.9 16.2,3.9 		"/>
		<polygon style="clip-path:url(#SVGID_00000183949064621991686000000013067862564228768917_);fill:#FFFFFF;" points="16.4,6.1 
			16.6,6.7 17.3,6.7 16.7,7.1 17,7.7 16.4,7.4 15.8,7.7 16.1,7.1 15.5,6.7 16.2,6.7 		"/>
		<polygon style="clip-path:url(#SVGID_00000183949064621991686000000013067862564228768917_);fill:#FFFFFF;" points="16.4,8.9 
			16.6,9.5 17.3,9.5 16.7,9.9 17,10.5 16.4,10.1 15.8,10.5 16.1,9.9 15.5,9.5 16.2,9.5 		"/>
		<polygon style="clip-path:url(#SVGID_00000183949064621991686000000013067862564228768917_);fill:#FFFFFF;" points="16.4,11.7 
			16.6,12.3 17.3,12.3 16.7,12.7 17,13.3 16.4,12.9 15.8,13.3 16.1,12.7 15.5,12.3 16.2,12.3 		"/>
		<polygon style="clip-path:url(#SVGID_00000183949064621991686000000013067862564228768917_);fill:#FFFFFF;" points="18.4,1.8 
			18.6,2.5 19.3,2.5 18.8,2.9 19,3.5 18.4,3.1 17.9,3.5 18.1,2.9 17.5,2.5 18.2,2.5 		"/>
		<polygon style="clip-path:url(#SVGID_00000183949064621991686000000013067862564228768917_);fill:#FFFFFF;" points="18.4,4.6 
			18.6,5.3 19.3,5.3 18.8,5.6 19,6.3 18.4,5.9 17.9,6.3 18.1,5.6 17.5,5.3 18.2,5.3 		"/>
		<polygon style="clip-path:url(#SVGID_00000183949064621991686000000013067862564228768917_);fill:#FFFFFF;" points="18.4,7.4 
			18.6,8 19.3,8 18.8,8.4 19,9.1 18.4,8.7 17.9,9.1 18.1,8.4 17.5,8 18.2,8 		"/>
		<polygon style="clip-path:url(#SVGID_00000183949064621991686000000013067862564228768917_);fill:#FFFFFF;" points="18.4,10.2 
			18.6,10.8 19.3,10.8 18.8,11.2 19,11.8 18.4,11.5 17.9,11.8 18.1,11.2 17.5,10.8 18.2,10.8 		"/>
		<polygon style="clip-path:url(#SVGID_00000183949064621991686000000013067862564228768917_);fill:#FFFFFF;" points="18.4,13 
			18.6,13.6 19.3,13.6 18.8,14 19,14.6 18.4,14.2 17.9,14.6 18.1,14 17.5,13.6 18.2,13.6 		"/>
		<polygon style="clip-path:url(#SVGID_00000183949064621991686000000013067862564228768917_);fill:#FFFFFF;" points="20.4,3.3 
			20.7,3.9 21.3,3.9 20.8,4.3 21,5 20.4,4.6 19.9,5 20.1,4.3 19.5,3.9 20.2,3.9 		"/>
		<polygon style="clip-path:url(#SVGID_00000183949064621991686000000013067862564228768917_);fill:#FFFFFF;" points="20.4,6.1 
			20.7,6.7 21.3,6.7 20.8,7.1 21,7.7 20.4,7.4 19.9,7.7 20.1,7.1 19.5,6.7 20.2,6.7 		"/>
		<polygon style="clip-path:url(#SVGID_00000183949064621991686000000013067862564228768917_);fill:#FFFFFF;" points="20.4,8.9 
			20.7,9.5 21.3,9.5 20.8,9.9 21,10.5 20.4,10.1 19.9,10.5 20.1,9.9 19.5,9.5 20.2,9.5 		"/>
		<polygon style="clip-path:url(#SVGID_00000183949064621991686000000013067862564228768917_);fill:#FFFFFF;" points="20.4,11.7 
			20.7,12.3 21.3,12.3 20.8,12.7 21,13.3 20.4,12.9 19.9,13.3 20.1,12.7 19.5,12.3 20.2,12.3 		"/>
		<polygon style="clip-path:url(#SVGID_00000183949064621991686000000013067862564228768917_);fill:#FFFFFF;" points="22.5,1.8 
			22.7,2.5 23.4,2.5 22.8,2.9 23,3.5 22.5,3.1 21.9,3.5 22.1,2.9 21.6,2.5 22.3,2.5 		"/>
		<polygon style="clip-path:url(#SVGID_00000183949064621991686000000013067862564228768917_);fill:#FFFFFF;" points="22.5,4.6 
			22.7,5.3 23.4,5.3 22.8,5.6 23,6.3 22.5,5.9 21.9,6.3 22.1,5.6 21.6,5.3 22.3,5.3 		"/>
		<polygon style="clip-path:url(#SVGID_00000183949064621991686000000013067862564228768917_);fill:#FFFFFF;" points="22.5,7.4 
			22.7,8 23.4,8 22.8,8.4 23,9.1 22.5,8.7 21.9,9.1 22.1,8.4 21.6,8 22.3,8 		"/>
		<polygon style="clip-path:url(#SVGID_00000183949064621991686000000013067862564228768917_);fill:#FFFFFF;" points="22.5,10.2 
			22.7,10.8 23.4,10.8 22.8,11.2 23,11.8 22.5,11.5 21.9,11.8 22.1,11.2 21.6,10.8 22.3,10.8 		"/>
		<polygon style="clip-path:url(#SVGID_00000183949064621991686000000013067862564228768917_);fill:#FFFFFF;" points="22.5,13 
			22.7,13.6 23.4,13.6 22.8,14 23,14.6 22.5,14.2 21.9,14.6 22.1,14 21.6,13.6 22.3,13.6 		"/>
	</g>
</g>
</svg>
